<?xml version="1.0" standalone="no"?>
<!DOCTYPE svg PUBLIC "-//W3C//DTD SVG 20010904//EN"
 "http://www.w3.org/TR/2001/REC-SVG-20010904/DTD/svg10.dtd">
<svg version="1.0" xmlns="http://www.w3.org/2000/svg"
 width="474.000000pt" height="364.000000pt" viewBox="0 0 474.000000 364.000000"
 preserveAspectRatio="xMidYMid meet">
<metadata>
Created by potrace 1.16, written by Peter Selinger 2001-2019
</metadata>
<g transform="translate(0.000000,364.000000) scale(0.100000,-0.100000)"
fill="#000000" stroke="none">
<path d="M2060 2495 c-133 -41 -213 -197 -195 -380 15 -148 55 -218 237 -411
154 -163 182 -212 182 -310 -1 -122 -62 -204 -153 -204 -110 0 -198 112 -217
275 -6 49 -9 55 -31 55 l-23 0 2 -177 3 -178 80 -33 c75 -31 86 -33 176 -29
84 3 103 8 152 34 56 30 57 31 57 10 0 -22 1 -22 238 -22 130 1 248 5 262 9
42 14 106 66 138 110 89 123 107 362 39 510 -24 52 -91 126 -114 126 -20 0
-16 9 23 53 55 60 77 119 82 217 8 158 -42 275 -135 322 -42 20 -61 23 -143
21 -52 -1 -165 -4 -250 -6 -111 -2 -164 1 -187 10 -42 17 -165 16 -223 -2z
m158 -95 c50 -31 89 -108 107 -212 5 -32 10 -38 30 -38 l25 0 0 130 c0 73 4
130 9 130 5 0 19 -12 30 -26 20 -26 21 -37 20 -413 0 -212 -4 -375 -8 -361 -5
14 -16 51 -25 82 -23 79 -77 154 -217 298 -154 159 -189 226 -174 326 4 29 16
53 36 74 26 26 38 30 82 30 34 0 63 -7 85 -20z m517 -14 c13 -9 35 -35 47 -59
19 -36 23 -57 23 -152 0 -62 -6 -129 -13 -154 -17 -56 -58 -98 -105 -106 -69
-13 -67 -23 -67 251 l0 247 45 -5 c25 -3 56 -13 70 -22z m30 -585 c16 -9 40
-35 52 -56 61 -109 52 -389 -16 -484 -28 -39 -90 -59 -127 -43 -48 23 -54 58
-54 340 0 142 3 262 7 266 12 11 105 -4 138 -23z"/>
<path d="M2152 2131 c2 -5 51 -59 111 -121 l107 -111 0 95 0 96 -35 0 c-25 0
-43 7 -59 25 -19 21 -33 25 -75 25 -29 0 -51 -4 -49 -9z"/>
<path d="M2690 1672 l0 -89 43 -18 c23 -10 45 -20 50 -23 12 -7 8 72 -8 124
-15 53 -46 94 -70 94 -12 0 -15 -18 -15 -88z"/>
<path d="M3560 2225 c-62 -20 -82 -22 -115 -14 -65 15 -375 24 -375 11 0 -9
43 -12 147 -12 80 0 175 -5 211 -11 59 -11 71 -9 154 16 113 35 172 31 325
-20 119 -40 186 -79 191 -113 3 -16 35 -37 142 -92 77 -39 144 -79 149 -89 14
-25 -34 -59 -104 -73 -44 -10 -70 -9 -146 6 -51 10 -166 22 -256 27 -145 8
-169 11 -219 35 -63 30 -116 28 -172 -6 -32 -20 -32 -20 -16 -51 9 -17 22 -52
30 -78 24 -80 32 -84 214 -125 91 -20 215 -52 275 -71 61 -19 157 -44 214 -55
57 -11 122 -28 145 -39 23 -10 68 -22 101 -26 33 -4 72 -13 86 -20 29 -15 57
-45 41 -45 -5 0 -15 6 -21 14 -14 17 -87 36 -138 36 -21 0 -48 7 -60 15 -57
40 -283 76 -816 130 -67 7 -68 8 -89 48 -11 22 -31 70 -45 106 -13 36 -33 80
-44 97 -25 41 -24 48 4 29 22 -14 25 -13 53 16 41 43 74 58 144 66 56 5 60 8
60 31 l0 24 33 -24 c78 -60 125 -69 282 -55 44 4 74 4 68 1 -27 -12 -9 -21 87
-44 85 -20 107 -22 147 -12 73 16 105 31 97 43 -3 6 -61 38 -128 70 -87 42
-132 59 -162 59 -51 0 -59 8 -32 29 17 14 19 21 9 38 -14 28 -103 71 -161 78
-25 3 -75 13 -112 22 -63 16 -71 16 -121 0 -75 -24 -120 -56 -131 -95 -5 -18
-7 -34 -5 -36 9 -10 120 24 162 48 40 24 52 26 94 20 l48 -8 -38 -8 c-20 -4
-63 -21 -95 -37 -68 -36 -136 -54 -183 -49 l-34 3 -5 70 c-5 68 -6 70 -35 76
-16 4 -101 7 -187 8 l-158 1 0 -36 c0 -53 -28 -152 -58 -205 l-26 -47 28 -32
c36 -43 73 -117 81 -164 9 -43 31 -59 163 -121 75 -35 81 -40 67 -55 -23 -25
-18 -39 20 -57 31 -15 47 -15 163 -3 154 15 398 8 487 -14 33 -9 103 -18 155
-21 118 -7 173 -19 229 -51 47 -26 145 -33 195 -14 20 7 26 6 26 -4 0 -27
-199 -36 -220 -10 -26 30 -176 76 -167 51 5 -15 68 -47 93 -47 11 0 31 -11 44
-25 l23 -25 -84 0 c-92 0 -104 5 -174 70 -29 28 -55 41 -95 50 -94 19 -260 23
-457 10 -221 -14 -241 -10 -308 66 -32 36 -48 46 -81 51 -25 3 -44 1 -48 -6
-5 -7 7 -11 35 -11 39 0 48 -5 94 -54 62 -65 103 -77 215 -64 126 14 437 14
519 -1 62 -11 81 -20 115 -50 75 -68 82 -71 183 -71 99 0 108 6 76 44 -18 19
-18 19 7 3 26 -18 116 -23 204 -11 56 8 60 27 14 70 -44 40 -79 54 -138 54
-31 0 -61 7 -82 20 -19 11 -90 31 -158 44 -69 14 -152 35 -184 46 -63 23 -352
95 -424 106 -47 7 -54 15 -88 104 -12 30 -24 63 -28 72 -6 12 0 21 23 32 41
22 104 20 152 -4 32 -17 71 -23 202 -30 89 -6 189 -15 222 -22 33 -7 101 -13
151 -13 84 0 94 2 132 29 45 30 52 55 26 77 -9 8 -73 43 -143 79 -94 49 -129
72 -139 93 -19 40 -79 75 -195 114 -140 48 -250 53 -357 18z"/>
<path d="M1720 2075 c-36 -12 -112 -31 -170 -40 -58 -9 -195 -39 -305 -65
-253 -62 -349 -74 -560 -74 -156 -1 -203 5 -271 31 -23 9 -17 -31 8 -55 36
-33 69 -41 217 -53 182 -15 313 -2 771 77 35 6 35 5 -46 -78 -44 -45 -102
-112 -128 -148 -27 -36 -49 -66 -50 -67 -1 -1 -33 9 -72 22 -38 14 -82 25 -97
25 -29 0 -80 -22 -109 -47 -14 -13 -25 -12 -90 6 -95 27 -119 26 -162 -2 -19
-13 -78 -39 -133 -57 -80 -27 -115 -34 -193 -35 -111 -2 -153 -11 -175 -35
-14 -15 -14 -19 5 -42 12 -16 38 -30 68 -37 68 -17 156 -1 335 60 81 28 153
49 160 46 18 -6 -139 -76 -198 -89 -27 -6 -54 -14 -60 -18 -5 -4 -23 -10 -38
-14 -41 -10 -34 -47 13 -63 80 -27 122 -18 287 63 l155 76 172 -67 c94 -37
187 -67 206 -68 19 0 75 17 123 37 65 27 97 35 120 31 54 -10 124 13 205 67
91 60 87 57 81 63 -3 2 -32 -14 -64 -36 -103 -69 -128 -79 -202 -79 -54 0 -85
-7 -153 -35 -47 -19 -95 -35 -108 -35 -20 0 -153 48 -327 118 l-50 20 -155
-75 c-165 -80 -212 -92 -274 -71 -39 13 -61 38 -34 38 7 0 25 6 39 13 14 8 45
17 68 21 47 7 231 93 231 107 0 9 -27 13 -65 11 -18 -2 -18 -1 -3 8 24 15 176
-28 374 -105 93 -36 179 -65 191 -65 25 0 235 115 348 190 39 26 132 84 208
129 75 46 137 85 137 87 0 1 -22 32 -49 68 -46 61 -91 156 -91 194 -1 42 -14
45 -81 19 -35 -14 -89 -28 -119 -32 -55 -6 -374 -75 -440 -95 -93 -27 -218
-41 -415 -44 l-210 -4 180 8 c218 10 339 27 539 79 83 21 207 49 275 60 116
20 233 53 256 73 15 13 -5 9 -75 -17z m-160 -140 c0 -2 -16 -12 -36 -21 -68
-32 -119 -96 -159 -197 -32 -82 -94 -181 -95 -150 0 6 4 14 9 17 5 3 16 29 26
58 9 29 24 61 33 71 8 9 12 20 8 25 -5 4 -21 -9 -37 -28 -28 -32 -125 -183
-132 -204 -2 -5 -34 -2 -73 7 -38 9 -95 19 -127 22 -32 4 -97 20 -144 36 -48
16 -97 29 -110 29 -13 0 -49 -13 -81 -29 -111 -55 -180 -73 -297 -78 -60 -3
-114 -9 -120 -14 -5 -5 -19 -9 -32 -9 -33 0 -29 -17 9 -36 54 -28 160 -15 320
39 156 53 188 60 78 16 -182 -72 -336 -96 -406 -63 -41 20 -47 54 -10 54 14 0
28 5 31 10 3 6 46 10 95 10 117 0 278 44 357 97 40 27 47 27 156 -3 55 -15 70
-16 85 -6 9 7 35 21 58 32 38 18 45 19 98 5 31 -8 72 -21 90 -29 l35 -14 61
84 c34 46 101 123 148 170 85 84 86 86 52 80 -142 -23 -420 -67 -489 -77 -96
-13 -415 -7 -472 10 -32 10 -85 48 -77 56 2 2 16 1 31 -2 18 -4 24 -8 17 -13
-8 -5 2 -13 26 -21 29 -10 100 -14 274 -14 228 1 241 2 425 37 105 20 201 39
215 41 36 6 160 8 160 2z"/>
<path d="M3423 1825 c-14 -37 42 -197 74 -209 24 -10 496 -77 501 -71 7 7 -4
10 -248 65 -124 29 -228 55 -231 58 -4 4 -14 32 -24 62 -32 100 -57 133 -72
95z"/>
<path d="M1853 1673 c-54 -37 -126 -86 -160 -109 -33 -23 -102 -61 -152 -85
-50 -23 -91 -47 -91 -52 0 -6 25 -8 61 -4 77 7 158 46 270 130 46 35 113 83
149 107 36 24 67 45 69 46 7 6 -21 34 -35 34 -7 0 -57 -30 -111 -67z"/>
<path d="M694 1454 c-58 -32 -117 -56 -144 -59 -25 -3 -53 -10 -62 -16 -10 -5
-25 -9 -34 -9 -8 0 -14 -6 -12 -12 3 -8 27 -14 62 -16 53 -3 67 2 202 67 80
39 143 75 140 80 -16 25 -57 15 -152 -35z"/>
</g>
</svg>
